<svg xmlns="http://www.w3.org/2000/svg" xmlns:xlink="http://www.w3.org/1999/xlink" viewBox="0 0 34.46 34.47"><defs><style>.cls-1{fill:none;}.cls-2{clip-path:url(#clip-path);}.cls-3{fill:#231f20;}</style><clipPath id="clip-path" transform="translate(0 0)"><rect class="cls-1" width="34.46" height="34.46"/></clipPath></defs><title>dai</title><g id="Layer_2" data-name="Layer 2"><g id="Layer_1-2" data-name="Layer 1"><g id="Logo_Mark" data-name="Logo Mark"><g class="cls-2"><g class="cls-2"><path class="cls-3" d="M17.23,1.69A15.55,15.55,0,1,1,1.69,17.23,15.55,15.55,0,0,1,17.23,1.69m0-1.69A17.23,17.23,0,1,0,34.46,17.23,17.25,17.25,0,0,0,17.23,0M20,28.64V24.87a7.63,7.63,0,0,0,2.42-1.26,5.88,5.88,0,0,0,2.23-4.8c0-3-1.82-4.75-4.65-5.82V5.82a.87.87,0,0,0-1.51-.59,61.53,61.53,0,0,0-5.17,6.36c-1.55-.17-3.19-.27-4.86-.37a.85.85,0,0,0-.91.82A.87.87,0,0,0,8.4,13q2.11.12,3.88.29c-2,3.37-2.73,6.08-2.08,8.17.57,1.84,2.11,3.07,4.59,3.65a10,10,0,0,0,3.52.18v3.39a.87.87,0,1,0,1.74,0M18.3,14.25v9.25a8.63,8.63,0,0,1-3.12-.11c-1.86-.43-2.94-1.24-3.32-2.47s-.15-3.59,2.34-7.45a29.19,29.19,0,0,1,4.1.78m4.64,4.56a4.15,4.15,0,0,1-1.57,3.44A5.55,5.55,0,0,1,20,23V14.86c2,.91,2.9,2.18,2.91,3.95M18.3,8.1v4.33a28.51,28.51,0,0,0-3-.59c.82-1.13,1.8-2.37,3-3.74" transform="translate(0 0)"/></g></g></g></g></g></svg>